<svg xmlns="http://www.w3.org/2000/svg" viewBox="0 0 264.58 264.58337"><circle cx="165.36458" cy="165.36458" r="132.29167" transform="translate(-33.073 -33.073)"/><circle cx="165.36458" cy="165.36458" r="128.98438" fill="red" transform="translate(-33.073 -33.073)"/><circle cx="165.36458" cy="165.36458" r="112.44791" transform="translate(-33.073 -33.073)"/><circle cx="165.36458" cy="165.36458" r="109.14062" fill="#ff0" transform="translate(-33.073 -33.073)"/><g fill="none" stroke="#000"><path d="M230.547574 181.196194L130.333024 42.176993" stroke-width="3.44967628" stroke-linecap="round"/><path d="M72.537764 225.394664l15.90316-172.767515s13.18795-29.578115 41.89119-10.381721" stroke-width="3.45857239" stroke-linejoin="round"/></g><path d="M211.745234 207.521314l-86.06433-149.837235m-23.84215 179.882205l-.77535-172.710177s6.78435-19.771539 24.6175-7.172028" fill="none" stroke="#000" stroke-width="3.4395833" stroke-linecap="round"/><path d="M112.032854 37.955019c-2.62276.026-5.13192.53552-7.48458 1.53113-2.65476 1.123446-5.93561 3.497336-8.33921 6.034165-2.16016 2.279902-5.54176 7.074842-5.7894 8.208808-.12987.594643-15.90153 174.273692-15.89887 175.080072.004 1.2701 13.98789 8.29723 22.26811 11.19022 1.67344.58469 3.14573 1.06998 3.27195 1.07836.12625.008.15291-11.43051.0595-25.41948-.0934-13.98896-.29554-53.55751-.44946-87.93049l-.28-62.496202 1.09863-2.247031c2.17198-4.441307 5.02366-7.553657 8.46956-9.243298 3.56461-1.74784 6.94459-1.91308 11.20237-.547888 2.4284.778633 6.20336 2.870077 7.19204 3.984738.38035.428787 20.04649 34.936341 43.70297 76.683711l43.01207 75.90443 1.46521-1.64314c2.24293-2.51554 6.31497-7.90813 8.71775-11.54475 2.28184-3.45354 6.08871-10.06814 6.08976-10.58159.0008-.3035-99.52225-140.388088-100.59074-141.587568-.78201-.877876-4.42647-3.00346-7.1295-4.158561-3.65648-1.562556-7.216-2.329056-10.5881-2.295636z" fill="red"/><path d="M111.870394 37.085473c-2.66889.02611-5.22219.537812-7.61625 1.537683-2.70146 1.128256-6.04003 3.512309-8.48591 6.059997-2.19816 2.289663-5.63926 7.105129-5.89126 8.24395-.13214.597189-16.18127 175.019751-16.17857 175.829571.004 1.27554 14.23398 8.33275 22.65987 11.23813 1.70288.58718 3.20107 1.07456 3.32952 1.08298.12846.008.15558-11.47946.0605-25.5283-.0951-14.04884-.30074-53.78678-.45737-88.30691l-.28493-62.763751 1.11796-2.256649c2.21019-4.46032 5.11203-7.585993 8.61856-9.282868 3.62732-1.755322 7.06676-1.92127 11.39945-.550233 2.47112.781966 6.31249 2.882363 7.31857 4.001795.38704.430623 20.39915 35.085916 44.47182 77.011996l43.76876 76.22935 1.491-1.65016c2.28238-2.5263 6.42606-7.94199 8.87111-11.59418 2.32198-3.46833 6.19582-10.11124 6.1969-10.62688.00071-.3048-101.27312-140.989079-102.36041-142.193696-.79576-.881633-4.50434-3.016316-7.25492-4.176363-3.72081-1.569245-7.34295-2.339026-10.77438-2.305462z" fill="red"/></svg>